Coordinates
version=1
nRows=12
nColumns=34
inDegrees=yes

Units are S.I. units (second, meters, Newtons, ...)
If the header above contains a line with 'inDegrees', this indicates whether rotational values are in degrees (yes) or radians (no).

endheader
time	pelvis_tilt	pelvis_list	pelvis_rotation	pelvis_tx	pelvis_ty	pelvis_tz	hip_flexion_r	hip_adduction_r	hip_rotation_r	knee_angle_r	ankle_angle_r	subtalar_angle_r	mtp_angle_r	hip_flexion_l	hip_adduction_l	hip_rotation_l	knee_angle_l	ankle_angle_l	subtalar_angle_l	mtp_angle_l	lumbar_extension	lumbar_bending	lumbar_rotation	arm_flex_r	arm_add_r	arm_rot_r	elbow_flex_r	pro_sup_r	arm_flex_l	arm_add_l	arm_rot_l	elbow_flex_l	pro_sup_l
      5.98333330	      7.77437787	    -10.15066305	    -28.06777238	      0.92812510	      1.00840965	      0.27058848	     -2.14435799	      3.47331262	     -4.74752030	     15.13689626	     10.13981756	     -3.05119690	      0.00000000	     15.87688747	     -6.69537393	     -7.75458675	     44.27257142	      9.15446575	     -6.02723023	      0.00000000	     -9.64768846	      2.82218176	      1.51524025	     14.34343653	    -10.69934209	      8.24909783	     20.97321180	    119.74817918	     10.21469202	     -7.69128580	     15.24470038	     18.46668342	    117.41298586
      6.00000000	      7.77870710	    -10.14751123	    -27.89346938	      0.92709513	      1.00867192	      0.27190349	     -2.15189570	      3.59074789	     -4.76846719	     15.12669829	     10.13473590	     -3.04332957	      0.00000000	     15.90500143	     -6.82100883	     -7.73547734	     44.25908787	      9.16742993	     -6.05475447	      0.00000000	     -9.62407044	      2.50626091	      1.63576577	     14.56800818	    -10.75590566	      8.24268442	     21.05919300	    119.74817918	     10.01403265	     -7.54545081	     15.26611041	     18.41820290	    117.41571000
      6.01666670	      7.68301032	    -10.09816465	    -27.83196390	      0.92567111	      1.00860848	      0.27318357	     -2.17283741	      3.71512876	     -4.99122203	     14.75526106	      9.99979815	     -2.99190781	      0.00000000	     15.99776083	     -7.03633492	     -8.05959273	     44.08063180	      9.20610191	     -6.35820349	      0.00000000	     -9.54262132	      2.19930258	      1.32132983	     14.99972307	    -10.57724600	      8.53020398	     21.61758957	    119.74817918	      9.70159403	     -7.47049706	     15.12640288	     18.13136113	    117.35773256
      6.03333330	      7.54994016	    -10.12283880	    -27.67589970	      0.92492012	      1.00859142	      0.27378480	     -2.13655525	      3.88527445	     -5.17100257	     14.53760706	      9.83361059	     -2.95314097	      0.00000000	     15.79772026	     -7.07639688	     -7.89386677	     43.28573539	      9.46219279	     -6.52525038	      0.00000000	     -9.36605406	      2.08814861	      1.20058036	     15.21175243	    -10.64715336	      8.97463204	     22.09762007	    119.74817918	      9.45348843	     -7.21400915	     14.91391155	     17.93247632	    117.26876305
      6.05000000	      7.33159218	    -10.16100289	    -27.45938398	      0.92339417	      1.00821290	      0.27395790	     -1.93410511	      4.13910991	     -5.23504740	     14.39625687	      9.88285264	     -2.97946861	      0.00000000	     15.66089615	     -7.21920303	     -7.82913662	     42.29471781	      9.59349422	     -6.52994511	      0.00000000	     -9.27181874	      1.98799212	      1.19529500	     15.49451777	    -10.63087280	      9.06775872	     22.30455470	    119.74817918	      9.48287658	     -7.00845260	     14.89109316	     17.94643944	    117.25507839
      6.06666670	      7.93319958	    -10.19476663	    -26.93602464	      0.92446371	      1.00951267	      0.27367779	     -2.96895019	      3.92661888	     -5.49580201	     13.67262460	      9.49902032	     -2.87954500	      0.00000000	     14.04261481	     -6.44480605	     -7.05580070	     40.21237794	     10.12525413	     -7.21837716	      0.00000000	     -9.60715497	      1.66121020	      0.51593165	     15.89827930	    -11.09623327	     12.92304633	     22.51236855	    119.74817918	      8.92687461	     -6.60630807	     13.03997509	     17.89035908	    116.45648658
      6.08333330	      7.64572680	    -10.23302301	    -26.80232881	      0.92441740	      1.00912683	      0.27427142	     -2.70971846	      4.16400343	     -5.57684708	     13.71023751	      9.45396890	     -2.92642337	      0.00000000	     13.47976503	     -6.47771363	     -6.79745856	     38.54219631	     10.74221773	     -7.19575550	      0.00000000	     -9.12101331	      1.68752279	      0.37524736	     15.93058708	    -10.95424258	     13.09191825	     22.77290337	    119.74817918	      8.53771948	     -6.38859253	     13.00488055	     17.68713880	    116.43462386
      6.10000000	      8.13065957	    -10.14357562	    -26.35824446	      0.92564720	      1.00991945	      0.27466947	     -3.40841217	      3.90620574	     -5.79702012	     13.39960647	      9.53403869	     -2.91916934	      0.00000000	     11.71060740	     -5.85176222	     -6.41359470	     36.00647970	     11.64935122	     -6.96524752	      0.00000000	     -9.21341845	      1.22001450	      0.02826127	     15.80703930	    -11.00533059	     14.39103019	     23.31014869	    119.74817918	      8.08693176	     -6.19211381	     12.39234050	     17.46800097	    116.14699680
      6.11666670	      8.41415123	    -10.19311702	    -26.17315242	      0.92696568	      1.01053944	      0.27549282	     -3.97785942	      3.86607463	     -5.80479787	     13.12269197	      9.61337209	     -2.67179389	      0.00000000	      9.92689672	     -5.46446459	     -5.95085903	     33.27502990	     12.09293840	     -7.16209521	      0.00000000	     -9.09001054	      0.99391496	     -0.06075814	     15.71988094	    -11.00510786	     15.65031032	     23.46471592	    119.74817918	      7.46086291	     -5.94810777	     11.81332366	     17.48307098	    115.85438614
      6.13333330	      8.02258958	    -10.28093411	    -26.06858719	      0.92817423	      1.00994010	      0.27622171	     -3.78690490	      4.16786493	     -5.85767193	     13.02596575	      9.55365849	     -2.56112224	      0.00000000	      8.90977236	     -5.52025604	     -5.55839315	     30.75024083	     12.86955624	     -7.11827491	      0.00000000	     -8.34059703	      1.17137358	     -0.03214394	     15.43036042	    -10.96847481	     15.97158414	     23.58773930	    119.74817918	      6.84168459	     -5.61606474	     11.74671933	     17.38356051	    115.80914991
      6.15000000	      8.59319243	    -10.49768637	    -26.27602777	      0.92992561	      1.01096366	      0.27739717	     -4.71023565	      4.06208734	     -5.81247489	     12.81573470	      9.77870284	     -1.97754181	      0.00000000	      6.12072171	     -5.17999492	     -5.57949359	     27.05892193	     13.34331979	     -6.95364376	      0.00000000	     -8.61698897	      0.99167877	      0.28415517	     15.31519693	    -11.13795572	     17.71067772	     23.97647435	    119.74817918	      6.16667288	     -5.23270847	     10.96284809	     17.51225362	    115.45319993
      6.16666670	      8.06535421	    -10.76793544	    -26.33292240	      0.93151844	      1.00982760	      0.27776413	     -4.42742338	      4.55381138	     -5.76785841	     12.81036126	      9.83038824	     -1.88790498	      0.00000000	      4.94899104	     -5.42088467	     -5.02056172	     24.30778150	     14.30976783	     -6.79499366	      0.00000000	     -7.82626623	      1.53362416	      0.34168817	     15.06044606	    -11.21212046	     18.03554336	     24.19241877	    119.74817918	      5.47055190	     -4.72448152	     10.88089758	     17.50861437	    115.40540694
